<?xml version="1.0" encoding="utf-8"?>
<!-- Generator: Adobe Illustrator 21.0.2, SVG Export Plug-In . SVG Version: 6.00 Build 0)  -->
<svg version="1.1" id="Layer_1" xmlns="http://www.w3.org/2000/svg" xmlns:xlink="http://www.w3.org/1999/xlink" x="0px" y="0px"
	 viewBox="0 0 402 72.4" style="enable-background:new 0 0 402 72.4;" xml:space="preserve">
<style type="text/css">
	.st0{fill:#FFFFFF;}
</style>
<g>
	<g>
		<path class="st0" d="M100.6,18.4c4.9,0,8.6,1.5,11.9,4.6c0.4,0.4,0.4,1,0,1.4l-3.8,4c-0.3,0.3-0.9,0.3-1.2,0
			c-1.8-1.6-4.2-2.5-6.7-2.5c-5.6,0-9.7,4.6-9.7,10.2c0,5.5,4.1,10,9.7,10c2.3,0,4.8-0.8,6.6-2.4c0.3-0.3,1-0.3,1.3,0l3.8,4.1
			c0.3,0.3,0.3,1,0,1.3c-3.4,3.3-7.6,4.8-12,4.8c-9.9,0-17.8-7.8-17.8-17.7C82.8,26.4,90.7,18.4,100.6,18.4z"/>
		<path class="st0" d="M138.3,18.4c9.9,0,17.7,7.9,17.7,17.8c0,9.9-7.9,17.7-17.7,17.7c-9.9,0-17.7-7.8-17.7-17.7
			C120.6,26.4,128.5,18.4,138.3,18.4z M138.3,46c5.4,0,9.9-4.4,9.9-9.8c0-5.4-4.4-9.9-9.9-9.9c-5.4,0-9.8,4.5-9.8,9.9
			C128.5,41.6,133,46,138.3,46z"/>
		<path class="st0" d="M159.9,20.2c-0.3-0.6,0.1-1.3,0.8-1.3h6.6c0.4,0,0.7,0.3,0.8,0.5l8.1,18h0.3l8.1-18c0.1-0.2,0.4-0.5,0.8-0.5
			h6.6c0.7,0,1.1,0.6,0.8,1.3l-15.5,33.2c-0.1,0.3-0.4,0.5-0.8,0.5h-0.5c-0.4,0-0.7-0.2-0.8-0.5L159.9,20.2z"/>
		<path class="st0" d="M207.2,19.5c0.1-0.3,0.4-0.5,0.8-0.5h0.5c0.4,0,0.7,0.2,0.8,0.5l15.5,33.2c0.3,0.6-0.1,1.3-0.8,1.3h-6.6
			c-0.4,0-0.7-0.3-0.8-0.5l-8.1-18h-0.3l-8.1,18c-0.1,0.2-0.4,0.5-0.8,0.5h-6.6c-0.7,0-1.1-0.6-0.8-1.3L207.2,19.5z"/>
		<path class="st0" d="M235,19.9c0-0.5,0.4-0.9,0.9-0.9h5.9c0.5,0,0.9,0.4,0.9,0.9v26.3h11.7c0.5,0,0.9,0.4,0.9,0.9v5.4
			c0,0.5-0.4,0.9-0.9,0.9h-18.5c-0.5,0-0.9-0.4-0.9-0.9V19.9z"/>
		<path class="st0" d="M266.9,19.9c0-0.5,0.4-0.9,0.9-0.9h20.4c0.5,0,0.9,0.4,0.9,0.9v5.4c0,0.5-0.4,0.9-0.9,0.9h-13.7v8.2h11.2
			c0.5,0,0.9,0.4,0.9,0.9v5.4c0,0.5-0.4,0.9-0.9,0.9h-11.2v4.6h13.7c0.5,0,0.9,0.4,0.9,0.9v5.4c0,0.5-0.4,0.9-0.9,0.9h-20.4
			c-0.5,0-0.9-0.4-0.9-0.9V19.9z"/>
		<path class="st0" d="M379.7,19.9c0-0.5,0.4-0.9,0.9-0.9h20.4c0.5,0,0.9,0.4,0.9,0.9v5.4c0,0.5-0.4,0.9-0.9,0.9h-13.7v8.2h11.2
			c0.5,0,0.9,0.4,0.9,0.9v5.4c0,0.5-0.4,0.9-0.9,0.9h-11.2v4.6h13.7c0.5,0,0.9,0.4,0.9,0.9v5.4c0,0.5-0.4,0.9-0.9,0.9h-20.4
			c-0.5,0-0.9-0.4-0.9-0.9V19.9z"/>
		<path class="st0" d="M300.7,19.3c0-0.5,0.4-0.9,0.9-0.9h1.2l19.7,18.9h0V19.9c0-0.5,0.4-0.9,0.9-0.9h5.9c0.5,0,0.9,0.4,0.9,0.9V53
			c0,0.5-0.4,0.9-0.9,0.9h-0.8c-0.1,0-0.5-0.1-0.6-0.2l-19.5-19.6h0v18.4c0,0.5-0.4,0.9-0.9,0.9h-5.9c-0.5,0-0.9-0.4-0.9-0.9
			L300.7,19.3z"/>
		<path class="st0" d="M358,18.4c4.9,0,8.6,1.5,11.9,4.6c0.4,0.4,0.4,1,0,1.4l-3.8,4c-0.3,0.3-0.9,0.3-1.2,0
			c-1.8-1.6-4.2-2.5-6.7-2.5c-5.6,0-9.7,4.6-9.7,10.2c0,5.5,4.1,10,9.7,10c2.3,0,4.8-0.8,6.6-2.4c0.3-0.3,1-0.3,1.3,0l3.8,4.1
			c0.3,0.3,0.3,1,0,1.3c-3.4,3.3-7.6,4.8-12,4.8c-9.9,0-17.8-7.8-17.8-17.7C340.2,26.4,348.1,18.4,358,18.4z"/>
	</g>
	<g>
		<path class="st0" d="M63.7,7.5c1.2,1.2,1,5.6-2.2,12.5c-3.1,6.4-8.1,13.5-14.1,19.9c-2.3-0.7-4.9-0.1-6.7,1.7
			c-2.6,2.6-2.6,6.9,0,9.5c2.6,2.6,6.9,2.6,9.5,0c1.8-1.8,2.4-4.4,1.7-6.7c0.9-0.9,1.7-1.9,2.5-2.8c0.1,0.1,0,0,0,0
			c0.6-0.7,1.2-1.4,1.7-2c0,0,0.1,0.1,0,0c4.6-5.5,8.4-11.4,11-16.8c4.4-9.2,4.7-16,1-19.7c-5.5-5.4-15.6,0.6-28.6,10.9
			c0.6,0.5,1.1,1.1,1.7,1.7C53.2,6.7,61.6,5.4,63.7,7.5z"/>
		<path class="st0" d="M57.8,41.1c-0.6,0.7-1.2,1.4-1.8,2.1c6.6,7.9,9.5,15.1,9.5,19.2c0,1.3-0.3,2.2-0.8,2.7
			c-2.8,2.7-14.6-1.2-26.9-13.6l-4.5-4.5c0.3-2-0.4-4.1-1.9-5.6c-2.6-2.6-6.9-2.6-9.5,0c-2.6,2.6-2.6,6.9,0,9.5
			c2.1,2.1,5.2,2.5,7.7,1.3l3,2.9c-0.1,0.1,0,0,0,0c0.5,0.5,1.2,1.2,2,2c0,0-0.1,0.1,0,0c8.7,8.4,19.6,15,27.6,15
			c2.8,0,5.2-0.8,7-2.6c1.8-1.7,2.7-4.2,2.7-7.2C71.8,56,65.6,49.1,57.8,41.1z"/>
		<path class="st0" d="M9.1,64c-1.6-1.6-1.2-5.9,1.1-11.1c2.8-6.4,8-13.6,14.6-20.2l0.2-0.2c2.2,0.5,4.7,0,6.4-1.8
			c2.6-2.6,2.6-6.9,0-9.5c-2.6-2.6-6.9-2.6-9.5,0c-1.9,1.9-2.4,4.7-1.6,7c-0.9,0.9-1.8,1.9-2.7,2.8c0-0.1,0,0,0,0
			c-0.5,0.6-1.1,1.2-1.7,2l0,0v0c-0.1-0.1,0,0,0,0c-5,5.8-9,11.8-11.4,17.3c-3.5,8.1-3.4,14.5,0.3,18.2c1.9,1.9,4.5,2.8,7.6,2.8
			c5.5,0,12.7-6.2,20.5-12.5c-0.8-0.8-1.5-1.5-2.1-2C20.2,64.4,11.6,66.5,9.1,64z"/>
		<path class="st0" d="M16.1,29.4C9.4,21.3,6.3,14,6.3,9.9c0-1.3,0.3-2.2,0.8-2.7C10,4.4,21.8,8.3,34,20.6l4.8,5
			c-0.1,1.8,0.6,3.7,2,5.1c2.6,2.6,6.9,2.6,9.5,0c2.6-2.6,2.6-6.9,0-9.5c-2.2-2.2-5.4-2.5-8-1.1l-2.8-3l-0.9-0.9
			c-0.3-0.3-0.5-0.5-0.8-0.8C25.9,3.8,10-4.5,2.7,2.6C1,4.4,0,6.8,0,9.8c0,6.4,6.5,13.7,14.2,21.6C14.9,30.7,15.5,30,16.1,29.4z"/>
	</g>
</g>
</svg>
